<svg xmlns="http://www.w3.org/2000/svg" width="22.451" height="22.451" viewBox="0 0 22.451 22.451">
  <g id="fast-food" transform="translate(0.001)">
    <path id="Path_5727" data-name="Path 5727" d="M25.01,160.948a1.974,1.974,0,0,1-.995-1.713,5.487,5.487,0,0,1,5.481-5.481h2.259L31.862,152h-12.8l.919,15.168a.658.658,0,0,0,.657.618h4.036a3.272,3.272,0,0,1-.659-1.973,1.977,1.977,0,0,1,1.3-1.856,2.622,2.622,0,0,1,0-2.867C25.1,161.042,24.986,160.994,25.01,160.948Zm0,0" transform="translate(-18.228 -145.335)" fill="#fff"/>
    <path id="Path_5728" data-name="Path 5728" d="M7.233,5.35h6.578a.658.658,0,1,0,0-1.316H8.448l1.773-2.719H12.5A.658.658,0,0,0,12.5,0H9.865a.657.657,0,0,0-.551.3L6.878,4.034H.657a.658.658,0,0,0,0,1.316H7.233Zm0,0" transform="translate(0)" fill="#fff"/>
    <path id="Path_5729" data-name="Path 5729" d="M162,226.166a.658.658,0,0,0,.658.658H176.69a.658.658,0,0,0,.658-.658A4.171,4.171,0,0,0,173.182,222h-7.016A4.171,4.171,0,0,0,162,226.166Zm0,0" transform="translate(-154.897 -212.265)" fill="#fff"/>
    <path id="Path_5730" data-name="Path 5730" d="M183.316,362a1.315,1.315,0,1,0,0,2.631h10.963a1.315,1.315,0,1,0,0-2.631Zm0,0" transform="translate(-174.02 -346.126)" fill="#fff"/>
    <path id="Path_5731" data-name="Path 5731" d="M176.69,452H162.658a.658.658,0,0,0-.658.658,1.976,1.976,0,0,0,1.973,1.973h11.4a1.976,1.976,0,0,0,1.973-1.973A.658.658,0,0,0,176.69,452Zm0,0" transform="translate(-154.897 -432.18)" fill="#fff"/>
  </g>
</svg>
