<svg id="luggage" xmlns="http://www.w3.org/2000/svg" width="22.946" height="22.946" viewBox="0 0 22.946 22.946">
  <path id="Path_5746" data-name="Path 5746" d="M138.1,352.194a.672.672,0,0,1-.9,0,.783.783,0,0,0-1.075,1.137l1.523,1.523,1.523-1.523a.783.783,0,0,0-1.075-1.137Z" transform="translate(-129.806 -336.22)" fill="#fff"/>
  <path id="Path_5747" data-name="Path 5747" d="M13.669,204.689H10.98v-1.12A1.57,1.57,0,0,0,9.411,202H6.274a1.57,1.57,0,0,0-1.569,1.569v1.12H2.017A2.019,2.019,0,0,0,0,206.706v7.171a2.019,2.019,0,0,0,2.017,2.017H13.669a2.019,2.019,0,0,0,2.017-2.017v-7.171A2.019,2.019,0,0,0,13.669,204.689Zm-7.619-1.12a.224.224,0,0,1,.224-.224H9.411a.224.224,0,0,1,.224.224v1.12H6.05Zm4.266,7.44-2,2a.672.672,0,0,1-.951,0l-2-2a2.127,2.127,0,0,1,2.474-3.4,2.127,2.127,0,0,1,2.473,3.4Z" transform="translate(0 -192.947)" fill="#fff"/>
  <path id="Path_5748" data-name="Path 5748" d="M422,59h1.344v2.375H422Z" transform="translate(-403.088 -56.356)" fill="#fff"/>
  <path id="Path_5749" data-name="Path 5749" d="M342,59h1.344v2.375H342Z" transform="translate(-326.673 -56.356)" fill="#fff"/>
  <path id="Path_5750" data-name="Path 5750" d="M322.672,1.344h5.378a.672.672,0,1,0,0-1.344h-5.378a.672.672,0,0,0,0,1.344Z" transform="translate(-307.569)" fill="#fff"/>
  <path id="Path_5751" data-name="Path 5751" d="M290.291,142h-6.274A2.017,2.017,0,0,0,282,144.017v2.017h1.031a3.365,3.365,0,0,1,3.361,3.361v7.395h2.779v1.12a.672.672,0,1,0,1.344,0v-1.133a2.017,2.017,0,0,0,1.793-2V144.017A2.017,2.017,0,0,0,290.291,142Z" transform="translate(-269.362 -135.636)" fill="#fff"/>
</svg>
