<svg xmlns="http://www.w3.org/2000/svg" width="18.083" height="25.336" viewBox="0 0 18.083 25.336">
  <g id="security" transform="translate(0)">
    <path id="Path_5724" data-name="Path 5724" d="M17.506,2.323a1.68,1.68,0,0,0-1.323-.407,5.9,5.9,0,0,1-.74.047A5.771,5.771,0,0,1,12.176.956a5.619,5.619,0,0,0-6.271,0A5.77,5.77,0,0,1,2.638,1.963a5.864,5.864,0,0,1-.74-.047,1.68,1.68,0,0,0-1.322.407A1.7,1.7,0,0,0,0,3.6V15.071a6.542,6.542,0,0,0,2.424,5.1l6.149,5a.743.743,0,0,0,.937,0l6.149-5a6.542,6.542,0,0,0,2.424-5.1V3.6a1.7,1.7,0,0,0-.576-1.275ZM12.977,12.435V17.4a.551.551,0,0,1-.551.551H5.655A.551.551,0,0,1,5.1,17.4V12.435a.551.551,0,0,1,.551-.551v-1.8a3.386,3.386,0,1,1,6.772-.051v1.854a.551.551,0,0,1,.551.551Zm0,0" transform="translate(0)" fill="#fff"/>
    <path id="Path_5725" data-name="Path 5725" d="M146.187,164.289a1.9,1.9,0,0,0-1.9,1.9v1.854h3.8V166.19A1.9,1.9,0,0,0,146.187,164.289Zm0,0" transform="translate(-137.146 -156.159)" fill="#fff"/>
    <path id="Path_5726" data-name="Path 5726" d="M166.781,274.058a.875.875,0,1,0-1.6.489.737.737,0,0,0-.017.156v.924a.742.742,0,0,0,1.485,0V274.7a.736.736,0,0,0-.017-.156.87.87,0,0,0,.149-.489Zm0,0" transform="translate(-156.866 -259.665)" fill="#fff"/>
  </g>
</svg>
