<svg xmlns="http://www.w3.org/2000/svg" width="27.27" height="20.371" viewBox="0 0 27.27 20.371">
  <g id="smart-tv_1_" data-name="smart-tv (1)" transform="translate(0 -64.646)">
    <path id="Path_5739" data-name="Path 5739" d="M0,82.257H4.308L3.286,84.3l1.432.716,1.38-2.76H21.172l1.38,2.76,1.432-.716-1.022-2.043H27.27V64.646H0Zm24.068-3.2h-1.6v-1.6h1.6Zm0-3.2h-.8a2.4,2.4,0,0,0-2.4,2.4v.8h-1.6v-.8a4.007,4.007,0,0,1,4-4h.8Zm0-3.2h-.8a5.61,5.61,0,0,0-5.6,5.6v.8h-1.6v-.8a7.212,7.212,0,0,1,7.2-7.2h.8Zm-11.207,5.6A10.419,10.419,0,0,1,23.268,67.848h.8v1.6h-.8a8.816,8.816,0,0,0-8.806,8.806v.8h-1.6Z" fill="#fff"/>
  </g>
</svg>
