<svg xmlns="http://www.w3.org/2000/svg" width="23.089" height="20.37" viewBox="0 0 23.089 20.37">
  <g id="spoon-and-fork-crossed" transform="translate(0 -3.002)">
    <g id="Group_5492" data-name="Group 5492" transform="translate(0 3.002)">
      <path id="Path_5740" data-name="Path 5740" d="M31.824,38.579c.243.243.957-.077,1.2-.32l.4-.4c.243-.243.563-.958.32-1.2l-6.018-5.711L26.154,32.6Z" transform="translate(-14.313 -18.295)" fill="#fff"/>
      <path id="Path_5741" data-name="Path 5741" d="M7.533,11.026A3.5,3.5,0,0,0,6.67,6.782C5.213,5.325,2.067,3.9.61,5.357s-.032,4.6,1.424,6.059a3.515,3.515,0,0,0,4.168.907l2.851,3.005L10.56,13.9Z" transform="translate(0 -3.957)" fill="#fff"/>
      <path id="Path_5742" data-name="Path 5742" d="M18.47,10.029,6.526,21.365c-.243.243.077.958.32,1.2l.4.4a1.637,1.637,0,0,0,.942.407.359.359,0,0,0,.259-.086L19.824,11.3a2.8,2.8,0,0,0,.987.275,3.71,3.71,0,0,0,2.908-1.2c2.869-2.868,3.383-3.5,2.5-4.6L22.836,9.017a.416.416,0,0,1-.29.122.35.35,0,0,1-.251-.1l-.091-.09a.352.352,0,0,1-.1-.251.422.422,0,0,1,.125-.292L25.3,4.8l-.22-.22-.37-.372-3.62,3.088a.405.405,0,0,1-.279.113.35.35,0,0,1-.251-.1l-.091-.09a.352.352,0,0,1-.1-.251.422.422,0,0,1,.125-.292L23.723,3.3c-1.042-.757-1.675-.126-4.442,2.641A3.613,3.613,0,0,0,18.122,9.11,2.869,2.869,0,0,0,18.47,10.029Z" transform="translate(-3.524 -3.002)" fill="#fff"/>
    </g>
  </g>
</svg>
