<svg id="vip" xmlns="http://www.w3.org/2000/svg" width="24.636" height="24.636" viewBox="0 0 24.636 24.636">
  <path id="Path_5743" data-name="Path 5743" d="M217.947,150.8l.24-2.121-1.067.671-.946-1.44-.946,1.44-1.067-.671.24,2.121Z" transform="translate(-203.856 -140.793)" fill="#fff"/>
  <path id="Path_5744" data-name="Path 5744" d="M331.977,298.222h-.728v1.456h.728a.728.728,0,0,0,0-1.456Z" transform="translate(-315.31 -283.872)" fill="#fff"/>
  <path id="Path_5745" data-name="Path 5745" d="M24.636,12.318l-1.2-2.213L23.7,7.6,21.745,6.02l-.717-2.412-2.412-.717L17.033.935l-2.5.262L12.318,0,10.105,1.2,7.6.935,6.02,2.891l-2.412.717L2.891,6.02.935,7.6l.262,2.5L0,12.318l1.2,2.213-.262,2.5,1.956,1.583.717,2.412,2.412.717L7.6,23.7l2.5-.262,2.213,1.2,2.213-1.2,2.5.262,1.583-1.956,2.412-.717.717-2.412L23.7,17.033l-.262-2.5ZM10.942,6.582l1.376-2.093,1.376,2.093L16.1,5.067l-.722,6.384H9.255L8.533,5.067ZM8.609,19.667H7.426l-1.8-6.244,1.387-.4,1,3.483,1-3.483,1.387.4Zm4.431,0H11.6V12.906H13.04Zm3.627-2.418h-.728v2.418H14.5v-6.76h2.171a2.171,2.171,0,0,1,0,4.343Z" fill="#fff"/>
</svg>
