<svg xmlns="http://www.w3.org/2000/svg" width="24.18" height="18.29" viewBox="0 0 24.18 18.29">
  <g id="wifi" transform="translate(0 -60.225)">
    <g id="Group_5491" data-name="Group 5491" transform="translate(0 60.225)">
      <g id="Group_5487" data-name="Group 5487" transform="translate(3.55 5.032)">
        <path id="Path_5732" data-name="Path 5732" d="M88.377,168.71a1.285,1.285,0,0,1-.914-.381,8.964,8.964,0,0,0-12.656,0,1.293,1.293,0,0,1-1.829-1.829,11.547,11.547,0,0,1,16.314,0,1.3,1.3,0,0,1-.914,2.21Z" transform="translate(-72.6 -163.125)" fill="#fff"/>
      </g>
      <g id="Group_5488" data-name="Group 5488" transform="translate(7.052 9.976)">
        <path id="Path_5733" data-name="Path 5733" d="M152.974,268.362a1.285,1.285,0,0,1-.914-.381,4,4,0,0,0-5.653,0,1.293,1.293,0,1,1-1.829-1.829,6.582,6.582,0,0,1,9.311,0,1.291,1.291,0,0,1-.914,2.206Z" transform="translate(-144.2 -264.225)" fill="#fff"/>
      </g>
      <g id="Group_5489" data-name="Group 5489" transform="translate(10.359 14.837)">
        <circle id="Ellipse_155" data-name="Ellipse 155" cx="1.726" cy="1.726" r="1.726" fill="#fff"/>
      </g>
      <g id="Group_5490" data-name="Group 5490" transform="translate(0 0)">
        <path id="Path_5734" data-name="Path 5734" d="M22.883,67.287a1.285,1.285,0,0,1-.914-.381,13.99,13.99,0,0,0-19.762,0A1.293,1.293,0,0,1,.378,65.076a16.564,16.564,0,0,1,23.425,0,1.3,1.3,0,0,1,0,1.829A1.313,1.313,0,0,1,22.883,67.287Z" transform="translate(0 -60.225)" fill="#fff"/>
      </g>
    </g>
  </g>
</svg>
